<?xml version="1.0" encoding="utf-8"?>
<!-- Generator: Adobe Illustrator 18.1.1, SVG Export Plug-In . SVG Version: 6.00 Build 0)  -->
<svg version="1.1" id="bigplay" xmlns="http://www.w3.org/2000/svg" xmlns:xlink="http://www.w3.org/1999/xlink" x="0px" y="0px"
	 viewBox="-206 413 184 368" enable-background="new -206 413 184 368" xml:space="preserve">
<path fill="none" d="z"/>
<path fill="none" d="z"/>
<g>
	<path fill="#FFFFFF" d="M-41,506c-0.5-1.4-1.4-2.6-1.7-4c-0.6-2.7-0.3-5.8-1.5-8.2c-2.8-5.7-3.7-11.7-3.3-17.9
		c0.1-1.4,0.3-2.7,0.6-4.6c-9.5,3.3-10.4,11.5-12.1,19.7c-1.1-1.3-1.6-1.7-1.8-2.2c-3.1-5.5-1.7-10.7,4.6-17.2
		c4.8-5,4.1-8.8-2.3-12.3c-0.1,0.4-0.3,0.8-0.3,1.2c0,3.3-1.1,5.7-4.9,5.7c-3.6,0-5-2.4-5.2-5.6c-0.2-3.3,0.1-6.6-0.2-9.8
		c-0.2-2.6-0.9-5.1-1.3-7.7c-5.2,7.4-13.2,11.9-14,20.9c-0.1,0.7-2,1.9-2.7,1.7c-1.1-0.3-2.5-1.6-2.6-2.5c-0.2-1.8,0.3-3.8,1-5.5
		c0.8-2.2,2.4-4.2,3.2-6.4c1.9-5.3,0.6-9.7-4-10.8c-7.3-1.8-9.8-6.2-8.6-13.2c0-0.2-0.4-0.4-0.8-0.8c-3.5,1.6-4.8,4.9-4.9,8.3
		c-0.1,3.9,0.8,7.7,0.9,11.6c0,1.5-0.9,3-1.4,4.5c-1.1-1.3-3.1-2.5-3.1-3.8c-0.1-4.4,0.2-8.9,1-13.3c0.7-3.7,1.3-7.1-1.5-10.1
		c-1.6,2.9-2.4,5.8-4.3,7.7c-6.8,6.7-9.7,14-5.3,23.1c0.1,0.3,0.3,0.7,0.2,0.9c-0.6,1.3-1.4,2.6-2.1,3.9c-1.3-0.9-3.2-1.6-3.8-2.8
		c-0.6-1.3,0.3-3.2,0.1-4.8c-0.3-4.4-0.2-9-1.4-13.2c-1.1-3.9-3.6-7.4-5.9-11.9c-1.3,2-2.8,3.6-3.5,5.6c-0.7,1.9-0.5,4.1-0.7,6.2
		c-0.2,2-0.4,3.9-0.7,6.9c-2-4.5-3.5-7.7-5.1-11.3c-1.8,2.8-2.7,5-4.3,6.5c-5.1,5.1-5.4,10.7-2.8,17c0.6,1.5,1.8,3,1.8,4.6
		c0.1,1.9-0.4,4-1.3,5.7c-0.3,0.6-3.3,0.8-3.6,0.4c-0.9-1.5-1.2-3.4-1.4-5.2c-0.4-4,0-8.1-1-11.9c-1.1-4.2-3.5-8.1-5.5-12.5
		c-3.6,2.5-3.6,6.5-3.7,10.3c-0.1,4,0,7.9,0,11.9c-0.6,0.2-1.2,0.4-1.8,0.7c-2.1-2.8-4.2-5.6-6.3-8.5c-4.2,5.1-4,10.4-1.7,15.9
		c1.4,3.3,3.4,6.4,4.8,9.7c1.8,4.2,0.4,6.9-4.4,8.6c0.7-8.7-1.2-16.3-9.7-22.7c0.3,3.9,0.1,6.5,0.7,9c1.2,5.1,0.6,9.6-2.3,14.2
		c-4.4,6.9-6.4,15.1-2.9,22.4c4.3,8.8,5.3,17.8,5.6,27.2c0,0.9,0.2,1.8,0.3,2.7c2.5,13.4,8.3,25.1,17.2,33.5
		c3.8-1.7,6.6-2.9,9.6-4.2c0.6,1.8,1.1,3.1,1.8,5.2c0.4-1.6,0.5-2.3,0.5-2.4c1.8,0.9,3.7,1.8,6.5,3.2c-5.7-7.1-11.1-12.9-15.2-19.4
		c-4.3-6.8-6.7-14.6-6.6-23.1h28.1c0.7,7-2.3,15.8,9.5,15.8c0,4.1,0.1,7.7,0,11.3c-0.1,3.2,1.1,4.4,4.7,3.2c0-2.5-0.1-5,0-7.5
		c0.1-2.2,0.3-4.4,0.5-6.6c0.7,0,1.4,0.1,2.1,0.1v14h6.4v-19.8c0.6,0,1.2,0,1.8,0v19.5c2.3,0.2,3.8,0.3,5.7,0.4
		c0.2-4.9,0.5-9.5,0.7-14.1c0.6,0,1.3-0.1,2-0.1c0.2,4.7,0.5,9.5,0.7,14.3h4.4v-12.5c3.7-2.9,7.4-4.5,8.7-7.3c1.5-3,0.7-7,0.9-10.8
		h27c-0.1,1.3-0.1,2-0.2,2.7c-2.6,19.8-12.9,33.8-31,42.3c-1.5,0.7-3.4,2.3-3.5,3.6c-0.2,3.5,0.5,7,0.8,10.8
		c0.6-0.1,1.4-0.2,2.3-0.4c12.4-3.3,22-11,30.2-20.1c11.8-13.1,16.7-28.8,15.8-46.5c-0.1-1.6,1.1-3.9,2.5-4.9
		C-41.9,516.6-39.4,510.3-41,506z M-119.2,534.5c-2.2,2.2-5.6,3.3-8.7,4.2c-0.5,0.2-3-2.9-2.8-4.2c0.3-2,2.1-3.9,3.5-5.6
		c1.2-1.5,2.8-2.7,4.3-4.2c0.4,0.5,1,2.3,2.2,2.9C-117.1,529.5-117.3,532.6-119.2,534.5z M-97.8,534.6c-0.2,3-1.7,4.8-4.9,4.6
		c-3.6-0.2-8.7-4.9-7.6-7.5c0.8-1.9,3.6-3,5.5-4.5C-100,528.3-97.6,530.8-97.8,534.6z M-89.6,518.3c-0.2-2.6-0.7-5.1-0.6-7.6
		c0.4-6.9-3.5-11-9.1-13.6c-8.8-4.1-18.1-4.2-27.2-1.1c-6.8,2.3-11.3,6.6-11.1,14.5c0.1,2.5-0.3,5-0.6,7.9h-26.7
		c2.7-11.9,7.9-21.4,16.7-28c7.1-5.3,15.1-10.3,23.4-13c7.7-2.4,16.3-0.3,24.3,2.2c8.9,2.7,16.8,7.1,23.3,13.9
		c6.5,6.9,11.2,14.7,13.1,24.6H-89.6z"/>
	<path fill="#FFFFFF" d="M-103.4,591.9c-1.2,0.6-2.4,1.7-3.7,1.9c-15.4,1.7-29.7-1.9-42.8-10c-0.1-0.1-0.2-0.3-0.3-0.4
		c0-0.1-0.1-0.1-0.1-0.2c0,0,0-0.1-0.1-0.1c0.1-0.2,0.1-0.4,0.2-0.5c0.1-0.2,0.1-0.3,0.2-0.5c0.1-0.3,0.3-0.6,0.4-0.9
		c0.1-0.3,0.3-0.5,0.5-0.7c1.6-2.2,3.6-2.1,6.8,0c1,0.7,3,0.3,4.4,0c1.7-0.4,3.2-1.3,5.1-2.1c0.9,2.1,1.8,4.1,2.7,6
		c0.3,0,0.6,0,0.9,0c0.5-4.9,1-9.9,1.6-15.2c0.9-0.1,2.2-0.2,3.7-0.4c0.4,3.1,0.8,5.9,1.1,8.7c0.5-0.1,1-0.1,1.5-0.2
		c0.3-1.6,0.7-3.3,1-4.8c4.3-1.3,5.1,2.1,7.3,4.7c0.2-1.3,0.3-2.7,0.6-4c0.1-0.6,0.7-1,1.1-1.6c0.5,0.4,1.1,0.8,1.5,1.2
		c1.6,1.8,3.2,3.7,5.5,6.5c-0.1,2.1-0.4,5.6-0.6,9.9C-104.9,589.4-104.2,590.6-103.4,591.9z"/>
	<path fill="#FFFFFF" d="M-103.5,579.2c0.2-3.9,0.3-6.9,0.5-10.2h3.6C-99.9,572.5-97.1,576.6-103.5,579.2z"/>
	<path fill="#FFFFFF" d="M-152,575.3c-2.9,2.4-5.5,5.4-7.9-0.8C-157,574.8-154.7,575-152,575.3z"/>
</g>
</svg>
