<?xml version="1.0" encoding="utf-8"?>
<!-- Generator: Adobe Illustrator 18.1.1, SVG Export Plug-In . SVG Version: 6.00 Build 0)  -->
<svg version="1.1" id="controls.fw-Page_x25_201" xmlns="http://www.w3.org/2000/svg" xmlns:xlink="http://www.w3.org/1999/xlink"
	 x="0px" y="0px" viewBox="-184 497 144 32" enable-background="new -184 497 144 32" xml:space="preserve">
<path fill="none" d="z"/>
<g id="BG">
</g>
<g id="controls">
	<path id="Line" fill="none" d="M-85.5,504.5h11"/>
	<path id="Line2" fill="none" d="M-85.5,500.5h11"/>
	<path id="Line3" fill="none" d="M-85.5,508.5h11"/>
	<path id="Ellipse" fill="#FFFFFF" d="M-76,508.5c0-0.8,0.4-1.5,1-1.5s1,0.7,1,1.5s-0.4,1.5-1,1.5S-76,509.3-76,508.5z"/>
	<path id="Ellipse2" fill="#FFFFFF" d="M-80,504.5c0-0.8,0.4-1.5,1-1.5s1,0.7,1,1.5s-0.4,1.5-1,1.5S-80,505.3-80,504.5z"/>
	<path id="Ellipse3" fill="#FFFFFF" d="M-76,500.5c0-0.8,0.4-1.5,1-1.5s1,0.7,1,1.5s-0.4,1.5-1,1.5S-76,501.3-76,500.5z"/>
</g>
<g id="backlight">
	<g id="off">
		<rect x="-101" y="518" fill="#333333" width="10" height="6"/>
	</g>
	<g id="on">
		
			<radialGradient id="Ellipse4_1_" cx="-354.3571" cy="975.9" r="0.5" gradientTransform="matrix(14 0 0 -10 4865 10264)" gradientUnits="userSpaceOnUse">
			<stop  offset="0" style="stop-color:#FFFFFF"/>
			<stop  offset="1" style="stop-color:#F2F2F2;stop-opacity:0.2"/>
		</radialGradient>
		<path id="Ellipse4" fill="url(#Ellipse4_1_)" d="M-103,505c0-2.8,3.1-5,7-5s7,2.2,7,5s-3.1,5-7,5S-103,507.8-103,505z"/>
		<rect x="-101" y="502" fill="#333333" width="10" height="6"/>
	</g>
</g>
<g id="loop">
	<g id="on2">
		
			<linearGradient id="SVGID_1_" gradientUnits="userSpaceOnUse" x1="-352.1667" y1="981.4944" x2="-352.1667" y2="978.9191" gradientTransform="matrix(12 0 0 -11.125 4114 11418.125)">
			<stop  offset="0" style="stop-color:#FFFFFF"/>
			<stop  offset="1" style="stop-color:#C8C8C8"/>
		</linearGradient>
		<path fill="url(#SVGID_1_)" d="M-110.2,501.2c1.4,0.7,2.4,2.1,2.4,3.8c0,2.3-1.9,4.2-4.2,4.2s-4.2-1.9-4.2-4.2
			c0-1.7,1-3.1,2.4-3.8l-1.3-1.3c-1.7,1.1-2.9,3-2.9,5.1c0,3.3,2.7,6,6,6s6-2.7,6-6c0-2.2-1.2-4.1-2.9-5.1L-110.2,501.2z"/>
		
			<linearGradient id="SVGID_2_" gradientUnits="userSpaceOnUse" x1="-330.7" y1="926.8" x2="-330.7" y2="924.4125" gradientTransform="matrix(5 0 0 -5 1538 5133)">
			<stop  offset="0" style="stop-color:#FFFFFF"/>
			<stop  offset="1" style="stop-color:#C8C8C8"/>
		</linearGradient>
		<path fill="url(#SVGID_2_)" d="M-113,499h-5l5,5V499z"/>
	</g>
	<g id="off2">
		<path fill="#A8A8B7" d="M-110.2,517.2c1.4,0.7,2.4,2.1,2.4,3.8c0,2.3-1.9,4.2-4.2,4.2s-4.2-1.9-4.2-4.2c0-1.7,1-3.1,2.4-3.8
			l-1.3-1.3c-1.7,1.1-2.9,3-2.9,5.1c0,3.3,2.7,6,6,6s6-2.7,6-6c0-2.2-1.2-4.1-2.9-5.1L-110.2,517.2z"/>
		<path fill="#A8A8B7" d="M-113,515h-5l5,5V515z"/>
	</g>
</g>
<g id="cc">
	<rect x="-135" y="499" display="none" fill="none" width="14" height="12"/>
	<text transform="matrix(1 0 0 1 -135 514)" fill="#FFFFFF" font-family="'ArialMT'" font-size="10">cc</text>
	<path fill="none" d="M-129,504c-4.7-3.2-4.9,5.9,0,3"/>
	<path fill="none" d="M-124,504c-4.7-3.2-4.9,5.9,0,3"/>
	
		<linearGradient id="SVGID_3_" gradientUnits="userSpaceOnUse" x1="-354.3571" y1="984.6667" x2="-354.3571" y2="983.6667" gradientTransform="matrix(14 0 0 -12 4833 12315)">
		<stop  offset="0" style="stop-color:#FFFFFF"/>
		<stop  offset="1" style="stop-color:#C8C8C8"/>
	</linearGradient>
	<path fill="url(#SVGID_3_)" d="M-134,500h12v10h-12V500z M-135,499v12h14v-12H-135z"/>
	<rect x="-135" y="499" fill="none" width="14" height="12"/>
</g>
<g id="volume">
	<g id="no_x25_20sound">
		
			<linearGradient id="SVGID_4_" gradientUnits="userSpaceOnUse" x1="-330.7" y1="943.6667" x2="-330.7" y2="941.8125" gradientTransform="matrix(5 0 0 -6 1489 6162)">
			<stop  offset="0" style="stop-color:#FFFFFF"/>
			<stop  offset="1" style="stop-color:#C8C8C8"/>
		</linearGradient>
		<rect x="-167" y="502" fill="url(#SVGID_4_)" width="5" height="6"/>
		
			<linearGradient id="SVGID_5_" gradientUnits="userSpaceOnUse" x1="-321.5" y1="984.6667" x2="-321.5" y2="983.6667" gradientTransform="matrix(4 0 0 -12 1125 12315)">
			<stop  offset="0" style="stop-color:#FFFFFF"/>
			<stop  offset="1" style="stop-color:#C8C8C8"/>
		</linearGradient>
		<path fill="url(#SVGID_5_)" d="M-163,502l4-3v12l-4-2.9V502z"/>
	</g>
	<g id="sound_x25_20bars">
		
			<linearGradient id="SVGID_6_" gradientUnits="userSpaceOnUse" x1="-330.7" y1="943.6667" x2="-330.7" y2="941.8125" gradientTransform="matrix(5 0 0 -6 1489 6178)">
			<stop  offset="0" style="stop-color:#FFFFFF"/>
			<stop  offset="1" style="stop-color:#C8C8C8"/>
		</linearGradient>
		<rect x="-167" y="518" fill="url(#SVGID_6_)" width="5" height="6"/>
		
			<linearGradient id="SVGID_7_" gradientUnits="userSpaceOnUse" x1="-321.5" y1="984.6667" x2="-321.5" y2="983.6667" gradientTransform="matrix(4 0 0 -12 1125 12331)">
			<stop  offset="0" style="stop-color:#FFFFFF"/>
			<stop  offset="1" style="stop-color:#C8C8C8"/>
		</linearGradient>
		<path fill="url(#SVGID_7_)" d="M-163,518l4-3v12l-4-2.9V518z"/>
		<path fill="none" d="M-157,515c0,0,3.1-0.6,3,6s-3,6-3,6"/>
		<path fill="none" d="M-158,518c0,0,2-0.3,2,3c0,3.3-2,3-2,3"/>
	</g>
</g>
<g>
	<g id="play">
		<path id="Polygon" fill="#FF063C" d="M-170,505.5l-11,5.5v-11L-170,505.5z"/>
	</g>
	<g id="pause">
		<rect x="-181" y="515" fill="#FF063C" width="3" height="12"/>
		<rect x="-174" y="515" fill="#FF063C" width="3" height="12"/>
	</g>
</g>
<g id="fullscreen">
	<g id="enter_x25_201">
		
			<linearGradient id="SVGID_8_" gradientUnits="userSpaceOnUse" x1="-330.7" y1="926.8" x2="-330.7" y2="924.4125" gradientTransform="matrix(5 0 0 -5 1506 5133)">
			<stop  offset="0" style="stop-color:#FFFFFF"/>
			<stop  offset="1" style="stop-color:#C8C8C8"/>
		</linearGradient>
		<path fill="url(#SVGID_8_)" d="M-150,499h5l-5,5V499z"/>
		
			<linearGradient id="SVGID_9_" gradientUnits="userSpaceOnUse" x1="-330.7" y1="928.2" x2="-330.7" y2="925.8125" gradientTransform="matrix(5 0 0 -5 1506 5140)">
			<stop  offset="0" style="stop-color:#FFFFFF"/>
			<stop  offset="1" style="stop-color:#C8C8C8"/>
		</linearGradient>
		<path fill="url(#SVGID_9_)" d="M-150,511h5l-5-5V511z"/>
		
			<linearGradient id="SVGID_10_" gradientUnits="userSpaceOnUse" x1="-330.7" y1="926.8" x2="-330.7" y2="924.4125" gradientTransform="matrix(5 0 0 -5 1513 5133)">
			<stop  offset="0" style="stop-color:#FFFFFF"/>
			<stop  offset="1" style="stop-color:#C8C8C8"/>
		</linearGradient>
		<path fill="url(#SVGID_10_)" d="M-138,499h-5l5,5V499z"/>
		
			<linearGradient id="SVGID_11_" gradientUnits="userSpaceOnUse" x1="-330.7" y1="928.2" x2="-330.7" y2="925.8125" gradientTransform="matrix(5 0 0 -5 1513 5140)">
			<stop  offset="0" style="stop-color:#FFFFFF"/>
			<stop  offset="1" style="stop-color:#C8C8C8"/>
		</linearGradient>
		<path fill="url(#SVGID_11_)" d="M-138,511h-5l5-5V511z"/>
	</g>
	<g id="exit">
		
			<linearGradient id="SVGID_12_" gradientUnits="userSpaceOnUse" x1="-321.5" y1="902" x2="-321.5" y2="899.0156" gradientTransform="matrix(4 0 0 -4 1146 4123)">
			<stop  offset="0" style="stop-color:#FFFFFF"/>
			<stop  offset="1" style="stop-color:#C8C8C8"/>
		</linearGradient>
		<path fill="url(#SVGID_12_)" d="M-142,519h4l-4-4V519z"/>
		
			<linearGradient id="SVGID_13_" gradientUnits="userSpaceOnUse" x1="-321.5" y1="902" x2="-321.5" y2="899.6125" gradientTransform="matrix(4 0 0 -4 1138 4123)">
			<stop  offset="0" style="stop-color:#FFFFFF"/>
			<stop  offset="1" style="stop-color:#C8C8C8"/>
		</linearGradient>
		<path fill="url(#SVGID_13_)" d="M-146,519v-4l-4,4H-146z"/>
		
			<linearGradient id="SVGID_14_" gradientUnits="userSpaceOnUse" x1="-321.5" y1="904" x2="-321.5" y2="901" gradientTransform="matrix(4 0 0 -4 1138 4131)">
			<stop  offset="0" style="stop-color:#FFFFFF"/>
			<stop  offset="1" style="stop-color:#C8C8C8"/>
		</linearGradient>
		<path fill="url(#SVGID_14_)" d="M-146,523h-4l4,4V523z"/>
		
			<linearGradient id="SVGID_15_" gradientUnits="userSpaceOnUse" x1="-321.5" y1="904" x2="-321.5" y2="900.8906" gradientTransform="matrix(4 0 0 -4 1146 4131)">
			<stop  offset="0" style="stop-color:#FFFFFF"/>
			<stop  offset="1" style="stop-color:#C8C8C8"/>
		</linearGradient>
		<path fill="url(#SVGID_15_)" d="M-142,523v4l4-4H-142z"/>
	</g>
</g>
<g id="stop">
	
		<linearGradient id="SVGID_16_" gradientUnits="userSpaceOnUse" x1="-349.1" y1="976.4" x2="-349.1" y2="975.4" gradientTransform="matrix(10 0 0 -10 3427 10264)">
		<stop  offset="0" style="stop-color:#FFFFFF"/>
		<stop  offset="1" style="stop-color:#C8C8C8"/>
	</linearGradient>
	<rect x="-69" y="500" fill="url(#SVGID_16_)" width="10" height="10"/>
</g>
<g id="chooser">
	
		<linearGradient id="SVGID_17_" gradientUnits="userSpaceOnUse" x1="-353.5233" y1="988.3238" x2="-353.5233" y2="987.3238" gradientTransform="matrix(13.1648 0 0 -13.1648 4606.062 13509.5029)">
		<stop  offset="0" style="stop-color:#FFFFFF"/>
		<stop  offset="0.9944" style="stop-color:#C8C8C8"/>
	</linearGradient>
	<path fill="url(#SVGID_17_)" d="M-48.8,503.2c1-0.4,2.2,0.1,2.6,1.1c0.4,1-0.1,2.2-1.1,2.6c-1,0.4-2.2-0.1-2.6-1.1
		C-50.3,504.7-49.8,503.6-48.8,503.2z M-50.7,498.4l2.7,2.6l2.7-2.6l0.1,3.8l3.8,0.1L-44,505l2.6,2.7l-3.8,0.1l-0.1,3.8L-48,509
		l-2.7,2.6l-0.1-3.8l-3.8-0.1l2.6-2.7l-2.6-2.7l3.8-0.1L-50.7,498.4z"/>
</g>
<path fill="none" d="z"/>
</svg>
